<svg xmlns="http://www.w3.org/2000/svg" xmlns:xlink="http://www.w3.org/1999/xlink" viewBox="0 0 514.03 515.77"><defs><style>.cls-1{fill:none;}.cls-2{fill:#1a535c;}.cls-3{fill:#4ecdc4;}.cls-4{clip-path:url(#clip-path);}.cls-5{fill:#41b7ac;}.cls-6{fill:#1d1d1d;}</style><clipPath id="clip-path"><ellipse class="cls-1" cx="264.73" cy="231.85" rx="249.3" ry="170.83"/></clipPath></defs><g id="Capa_2" data-name="Capa 2"><g id="Capa_2-2" data-name="Capa 2"><path class="cls-2" d="M195.19,68.26S184.53,32.72,219.51,14.1c0,0-10.42,26.75,6.37,32.3,0,0,11.92-36.22,43.84-46.4,0,0-18.13,36.1-1.34,48,0,0,14.88-28.29,39.74-26.59,0,0-23.32,53.65,1.88,60.72Z"/><ellipse class="cls-3" cx="264.73" cy="231.85" rx="249.3" ry="170.83"/><g class="cls-4"><path class="cls-5" d="M498.72,252.14a31.94,31.94,0,0,1-.24,3.91,2.53,2.53,0,0,0,2.5,2.5h.24l-2.5-2.5V468.36c0,3.95,0,7.9,0,11.85-.06,11.65-5.94,22.34-16.58,27.58-16.57,8.16-37.06-1.34-41.7-19.16-1.1-4.27-.94-8.59-.94-12.95V271.45c0-4.45.4-9.11,0-13.55-.05-.61,0-1.24,0-1.85l-2.5,2.5h.24a2.51,2.51,0,0,0,2.5-2.5,30.74,30.74,0,0,1,11.79-27.78c2.53-2-1-5.51-3.53-3.53a35.18,35.18,0,0,0-13.26,31.31l2.5-2.5H437a2.53,2.53,0,0,0-2.5,2.5V472.68c0,2.83-.05,5.66,0,8.48a34.61,34.61,0,0,0,63.58,19c4.31-6.52,5.64-13.91,5.64-21.56V367.12c0-36.36.48-72.76,0-109.12,0-.65,0-1.3,0-1.95a2.53,2.53,0,0,0-2.5-2.5H501l2.5,2.5a31.94,31.94,0,0,0,.24-3.91c.1-3.22-4.9-3.22-5,0Z"/></g><path class="cls-6" d="M1.09,138.52,313.62,122.2s15,100.35-68.09,110.45c-41.87,5.08-76.18-28.86-87.19-83.25,0,0-11,88.21-77.48,89.66S-5.11,197.53,1.09,138.52Z"/><path class="cls-6" d="M245.21,285.17c-1,7.55,2,15.92,9.42,19,3.9,1.62,8.27,1.69,12.41,1.18a1.55,1.55,0,0,0,1.5-1.5,1.5,1.5,0,0,0-1.5-1.5c-5.78.71-12.21.24-16-4.45a13.5,13.5,0,0,1-2.4-5.08c-.12-.45-.22-.91-.31-1.37,0-.2-.07-.4-.1-.6s0-.23-.05-.35c.05.39,0,0,0-.06q-.12-1.14-.15-2.28c0-.62,0-1.24.05-1.85,0-.22.14-1.23,0-.33a1.57,1.57,0,0,0-1.05-1.85,1.52,1.52,0,0,0-1.85,1.05Z"/><path class="cls-6" d="M248.62,300.19c.3-.74-.1.17-.21.4a21.75,21.75,0,0,1-1.1,1.93,26.32,26.32,0,0,1-4.62,5.59c-6,5.7-14.26,8.38-22.55,8.48-7.79.11-15.45-1.77-22.73-4.41-1.82-.65-2.61,2.24-.8,2.9,11.59,4.19,24.95,6.61,36.85,2.17a33.18,33.18,0,0,0,16-12.53,21.22,21.22,0,0,0,2-3.74c.73-1.78-2.17-2.56-2.89-.79Z"/><path class="cls-6" d="M312.7,133.33s153.76,31.18,172.47,37c16.05,15.88,37.46,41.52,21.47,45.71-24.08,6.32-35.24-36.64-35.24-36.64L308.12,151.19Z"/></g></g></svg>