<svg xmlns="http://www.w3.org/2000/svg" xmlns:xlink="http://www.w3.org/1999/xlink" viewBox="0 0 71.73 71.73"><defs><style>.cls-1{fill:url(#Degradado_sin_nombre_2);}.cls-2{fill:#fff;}</style><radialGradient id="Degradado_sin_nombre_2" cx="-1.79" cy="71.96" r="132.62" gradientUnits="userSpaceOnUse"><stop offset="0" stop-color="#f5ec53"/><stop offset="0.24" stop-color="#e48244"/><stop offset="0.4" stop-color="#d15767"/><stop offset="0.49" stop-color="#c84278"/><stop offset="1" stop-color="#192cfa"/></radialGradient></defs><g id="Capa_2" data-name="Capa 2"><g id="Capa_1-2" data-name="Capa 1"><path class="cls-1" d="M35.86,71.73h0A35.87,35.87,0,0,1,0,35.86H0A35.87,35.87,0,0,1,35.86,0h0A35.87,35.87,0,0,1,71.73,35.86h0A35.87,35.87,0,0,1,35.86,71.73Z"/><path class="cls-2" d="M35.86,19.74c5.25,0,5.88,0,8,.12a10.68,10.68,0,0,1,3.65.67A6.13,6.13,0,0,1,49.72,22a5.9,5.9,0,0,1,1.47,2.26,10.86,10.86,0,0,1,.68,3.65C52,30,52,30.61,52,35.86s0,5.88-.11,8a10.86,10.86,0,0,1-.68,3.65,6.51,6.51,0,0,1-3.73,3.73,10.86,10.86,0,0,1-3.65.68c-2.07.09-2.7.11-8,.11s-5.87,0-7.94-.11a10.86,10.86,0,0,1-3.65-.68A5.9,5.9,0,0,1,22,49.72a6.13,6.13,0,0,1-1.48-2.26,10.93,10.93,0,0,1-.67-3.65c-.1-2.07-.12-2.7-.12-8s0-5.87.12-7.94a10.93,10.93,0,0,1,.67-3.65,6.62,6.62,0,0,1,3.74-3.74,10.68,10.68,0,0,1,3.65-.67c2.07-.1,2.69-.12,7.94-.12m0-3.54c-5.34,0-6,0-8.1.12a14.46,14.46,0,0,0-4.78.91A10.09,10.09,0,0,0,17.23,23a14.46,14.46,0,0,0-.91,4.78c-.1,2.09-.12,2.76-.12,8.1s0,6,.12,8.11a14.45,14.45,0,0,0,.91,4.77,9.68,9.68,0,0,0,2.27,3.49A9.78,9.78,0,0,0,23,54.5a14.72,14.72,0,0,0,4.78.91c2.09.09,2.76.12,8.1.12s6,0,8.11-.12a14.71,14.71,0,0,0,4.77-.91,9.81,9.81,0,0,0,3.49-2.27,9.65,9.65,0,0,0,2.26-3.49A14.42,14.42,0,0,0,55.41,44c.09-2.1.12-2.77.12-8.11s0-6-.12-8.1A14.43,14.43,0,0,0,54.49,23a10,10,0,0,0-5.75-5.75A14.45,14.45,0,0,0,44,16.32c-2.1-.1-2.77-.12-8.11-.12"/><path class="cls-2" d="M35.86,25.77A10.1,10.1,0,1,0,46,35.86a10.09,10.09,0,0,0-10.1-10.09m0,16.65a6.56,6.56,0,1,1,6.56-6.56,6.56,6.56,0,0,1-6.56,6.56"/><path class="cls-2" d="M48.72,25.37A2.36,2.36,0,1,1,46.36,23a2.36,2.36,0,0,1,2.36,2.36"/></g></g></svg>